<?xml version="1.0" standalone="no"?>
<!DOCTYPE svg PUBLIC "-//W3C//DTD SVG 20010904//EN"
 "http://www.w3.org/TR/2001/REC-SVG-20010904/DTD/svg10.dtd">
<svg version="1.0" xmlns="http://www.w3.org/2000/svg"
 width="200.000000pt" height="400.000000pt" viewBox="0 0 200.000000 400.000000"
 preserveAspectRatio="xMidYMid meet">
<metadata>
Created by potrace 1.15, written by Peter Selinger 2001-2017
</metadata>
<g transform="translate(0.000000,400.000000) scale(0.100000,-0.100000)"
fill="#000000" stroke="none">
<path d="M917 3626 c-92 -25 -130 -69 -152 -171 -12 -59 -15 -217 -15 -991 0
-824 -2 -922 -16 -928 -8 -3 -46 0 -84 6 -83 14 -189 0 -229 -30 -54 -40 -66
-77 -66 -202 0 -108 2 -119 31 -180 39 -80 347 -612 390 -673 49 -69 106 -92
224 -91 227 2 277 4 305 12 16 5 51 5 78 1 28 -5 69 -4 95 2 26 6 95 14 153
18 164 12 168 16 301 243 l68 118 0 360 c0 284 -3 360 -12 358 -7 -1 -39 4
-70 11 l-57 14 -3 956 c-3 902 -5 959 -22 1006 -10 28 -30 63 -45 78 -33 35
-118 61 -180 54 -27 -3 -74 1 -114 11 -52 12 -78 14 -116 6 -32 -7 -58 -7 -73
-1 -12 6 -66 11 -118 12 -52 1 -124 5 -160 8 -43 5 -81 2 -113 -7z m123 -1416
c0 -1090 -2 -1234 -15 -1261 -9 -16 -20 -27 -25 -24 -28 17 -30 116 -30 1298
l0 1217 35 0 35 0 0 -1230z m210 226 c0 -624 -4 -1007 -9 -1011 -6 -3 -15 3
-20 14 -11 20 -17 1974 -6 1991 4 6 13 10 21 10 12 0 14 -137 14 -1004z m210
24 c0 -826 -2 -980 -14 -980 -7 0 -18 6 -24 13 -8 9 -12 293 -12 963 0 522 -1
957 0 967 0 11 8 17 25 17 l25 0 0 -980z m210 4 c0 -776 -3 -975 -12 -972 -10
4 -14 210 -18 969 -3 530 -4 967 -2 972 2 4 10 7 18 7 12 0 14 -133 14 -976z
m-1034 -1180 c23 -38 110 -187 194 -331 127 -221 155 -263 174 -263 19 0 42
34 137 197 225 388 254 437 264 440 6 2 19 -3 30 -11 18 -13 8 -32 -195 -389
-147 -257 -220 -376 -232 -377 -20 0 -48 46 -275 440 -218 378 -198 339 -176
355 10 8 22 13 28 11 5 -1 28 -34 51 -72z"/>
</g>
</svg>
